<?xml version="1.0" encoding="iso-8859-1"?>
<!-- Generator: Adobe Illustrator 19.0.0, SVG Export Plug-In . SVG Version: 6.00 Build 0)  -->
<svg version="1.1" id="Capa_1" xmlns="http://www.w3.org/2000/svg" xmlns:xlink="http://www.w3.org/1999/xlink" x="0px" y="0px"
	 viewBox="0 0 512.007 512.007" style="enable-background:new 0 0 512.007 512.007;" xml:space="preserve">
<circle style="fill:#B6FFF6;" cx="256.003" cy="256.003" r="256.003"/>
<path style="fill:#78E9E1;" d="M337.468,103.264c-1.941-0.948-4.059-1.423-6.352-1.423h-20.249v19.164l-12.484-12.484l-0.005,0.005
	c-4.222-4.296-9.924-6.948-16.693-6.948c-7.795,0-15.038,3.567-19.658,10.118l-10.101-10.101l-0.246,0.246h-12.41v12.41
	l-1.669,1.669l-14.078-14.078h-12.903v11.513l-6.815-6.815c-5.45-2.726-11.443-5.095-17.602-5.095
	c-6.658,0-13.184,2.868-16.112,8.999c-1.982,4.146-2.291,11.027,1.423,14.988l11.952,11.952c-3.002-0.609-7.35-2.294-11.29-4.773
	l-5.558,11.317c0.046,0.028,0.096,0.053,0.143,0.081l-0.031,0.031l4.785,4.785h-40.117l-10.049,80.395
	c-0.547,2.147-0.839,4.397-0.839,6.715c0,9.727,5.124,18.253,12.816,23.039v151.582l100.474,100.476
	C241.116,511.66,248.518,512,256,512c134.745,0,245.176-104.103,255.25-236.267C335.742,100.226,341.343,105.16,337.468,103.264z"/>
<rect x="133.321" y="233.101" style="fill:#FFFFFF;" width="245.356" height="177.458"/>
<rect x="256.003" y="233.101" style="fill:#FFEBB4;" width="122.683" height="177.458"/>
<polygon style="fill:#C8462D;" points="380.608,148.824 131.393,148.824 120.504,235.934 391.496,235.934 "/>
<polygon style="fill:#AA321E;" points="256,148.824 256,235.934 391.496,235.934 380.608,148.824 "/>
<rect x="276.5" y="285.6" style="fill:#A56941;" width="78.082" height="72.462"/>
<rect x="294.542" y="302.34" style="fill:#78E9E1;" width="42.005" height="38.98"/>
<circle style="fill:#C8462D;" cx="147.626" cy="235.931" r="27.119"/>
<circle style="fill:#B4D7DC;" cx="201.81" cy="235.931" r="27.119"/>
<circle style="fill:#C8462D;" cx="256.003" cy="235.931" r="27.119"/>
<path style="fill:#AA321E;" d="M283.119,235.934c0-14.977-12.141-27.119-27.119-27.119v54.238
	C270.978,263.053,283.119,250.911,283.119,235.934z"/>
<circle style="fill:#B4D7DC;" cx="310.187" cy="235.931" r="27.119"/>
<circle style="fill:#AA321E;" cx="364.381" cy="235.931" r="27.119"/>
<g>
	<polygon style="fill:#E4F2F6;" points="232.148,148.824 183.454,148.824 174.742,235.934 228.881,235.934 	"/>
	<polygon style="fill:#E4F2F6;" points="328.547,148.824 279.853,148.824 283.119,235.934 337.258,235.934 	"/>
</g>
<g>
	<path style="fill:#C8462D;" d="M198.244,117.194c-3.285-1.972-8.487-4.301-12.44-4.301c-1.888,0-3.772,0.427-3.772,2.317
		c0,5.974,22.896,2.465,22.896,19.256c0,16.244-18.751,17.696-33.714,11.712c-1.654-0.663-3.187-1.412-4.599-2.25l5.558-11.316
		c4.24,2.666,10.053,5.161,15.087,5.161c4.781,0,5.17-3.316,0.662-4.963c-4.158-1.509-12.367-3.055-16.411-7.377
		c-3.614-3.856-3.494-10.655-1.423-14.988c2.924-6.123,9.444-8.999,16.112-8.999c6.15,0,12.139,2.362,17.602,5.095L198.244,117.194z
		"/>
	<path style="fill:#C8462D;" d="M252.172,101.841v46.982h-12.903v-18.396H223.52v18.396h-12.903v-46.982h12.903v17.338h15.749
		v-17.338H252.172z"/>
</g>
<g>
	<path style="fill:#872D1E;" d="M281.42,149.221c-13.923,0-23.756-11.545-23.756-23.954c0-12.568,10.206-23.689,24.02-23.689
		c13.926,0,23.69,11.547,23.69,23.954C305.374,137.986,295.172,149.221,281.42,149.221z M270.767,125.399
		c0,6.822,3.926,12.375,10.786,12.375c6.952,0,10.72-5.665,10.72-12.507c0-7.079-4.149-12.242-10.786-12.242
		C274.573,113.025,270.767,118.595,270.767,125.399z"/>
	<path style="fill:#872D1E;" d="M310.867,148.824v-46.982h20.249c8.997,0,15.815,8.088,15.815,16.279
		c0,8.37-6.209,16.279-15.484,16.279h-7.676v14.425L310.867,148.824L310.867,148.824z M323.771,123.149h6.815
		c0.795,0,1.532-0.364,2.217-1.091c0.683-0.728,1.026-2.04,1.026-3.938c0-1.941-0.397-3.264-1.191-3.97
		c-0.795-0.705-1.588-1.058-2.383-1.058h-6.485L323.771,123.149L323.771,123.149z"/>
</g>
<rect x="163.35" y="321.831" style="fill:#A56941;" width="63.589" height="88.729"/>
<rect x="153.689" y="306.727" style="fill:#823214;" width="82.912" height="15.104"/>
<g>
</g>
<g>
</g>
<g>
</g>
<g>
</g>
<g>
</g>
<g>
</g>
<g>
</g>
<g>
</g>
<g>
</g>
<g>
</g>
<g>
</g>
<g>
</g>
<g>
</g>
<g>
</g>
<g>
</g>
</svg>
